<?xml version="1.0" encoding="UTF-8" standalone="no"?>
<svg width="970px" height="859px" viewBox="0 0 970 859" version="1.1" xmlns="http://www.w3.org/2000/svg" xmlns:xlink="http://www.w3.org/1999/xlink" xmlns:sketch="http://www.bohemiancoding.com/sketch/ns">
    <title>community-map</title>
    <description>Created with Sketch (http://www.bohemiancoding.com/sketch)</description>
    <defs>
        <ellipse d="M56.6367188,781.433594 C87.2217679,825.186132 132.193359,848.121094 180.447266,848.121094 C228.701172,848.121094 355.863281,738.318359 444.5,741.332031 C542.361328,743.394531 634.884766,819.677734 706.78125,848.121094 C739.210938,848.121094 750.713418,764.913383 778.070312,724.058594 C828.755549,648.365251 920,569.708097 920,471 C920,385.112699 849.803806,375.425661 812.019531,317.386719 C759.724438,237.058277 724.669535,120.0547 621.199219,82.3789062 C573.005747,64.8306085 514.073962,0 460,0 C355.349929,0 177.273439,38.7617202 135.238281,72.7070312 C116.357354,87.9542443 74.6875,184.425781 103.996094,253.734375 C133.304686,323.042969 0,386.737562 0,471 C0,573.131553 2.69495356,704.268798 56.6367188,781.433594 Z M56.6367188,781.433594" id="path-1" stroke="none" fill-rule="evenodd" sketch:type="MSShapeGroup" cx="460" cy="424.060547" rx="460" ry="424.060547"></ellipse>
        <mask id="mask-2" fill="white">
            <use xlink:href="#path-1"></use>
        </mask>
    </defs>
    <g id="Page-1" stroke="none" stroke-width="1" fill="none" fill-rule="evenodd" sketch:type="MSPage">
        <rect d="M-1005,858 L-1005,1731 L2097,1731 L2097,858 L-1005,858 Z M-1005,858" id="ocean" fill="#173756" sketch:type="MSShapeGroup" x="-1005" y="858" width="3102" height="873"></rect>
        <rect d="M-1005,-13 L-1005,860 L2097,860 L2097,-13 L-1005,-13 Z M-1005,-13" id="grass" fill="#5C9329" sketch:type="MSShapeGroup" x="-1005" y="-13" width="3102" height="873"></rect>
        <ellipse d="M736,860 C635.914062,812.734375 555.332031,751.499997 471,751.5 C386.667969,751.500003 283.066406,841.492188 206,860 L736,860 Z M736,860" id="bay" fill="#183756" sketch:type="MSShapeGroup" cx="471" cy="805.75" rx="265" ry="54.25"></ellipse>
        <ellipse d="M458.730468,231.507818 C472.568471,249.376815 479.863493,275 502.5,275 C527.883218,275 531.382777,249.037513 545.070312,227.285156 C553.867555,213.304499 578,207.975114 578,189.5 C578,142.279652 535.464847,146.582031 513.19141,116.562499 C507.411387,108.772343 474.124999,91.3242188 449.847656,108.859375 C425.570313,126.394531 427,152.409027 427,189.5 C427,211.085629 447.078225,216.461289 458.730468,231.507818 Z M458.730468,231.507818" id="pond2" fill="#2D7DDC" sketch:type="MSShapeGroup" cx="502.492063" cy="188.153399" rx="75.5079367" ry="86.8466006"></ellipse>
        <ellipse d="M69.2734371,664.328131 C87.5098123,687.649597 127.671062,698 157.502523,698 C190.953731,698 195.565614,664.115431 213.603698,635.725653 C225.197121,617.478997 221.688922,529.480344 192.335931,490.300781 C184.718744,480.133569 120.108602,458.278177 88.1147693,481.163936 C56.1209363,504.049694 58.0050453,538.002142 58.0050453,586.410896 C58.0050453,614.583071 53.9175592,644.690368 69.2734371,664.328131 Z M69.2734371,664.328131" id="pond1" fill="#2D7DDC" sketch:type="MSShapeGroup" cx="138.640733" cy="584.544494" rx="81.1290358" ry="113.455506"></ellipse>
        <g id="hexes" sketch:type="MSLayerGroup" transform="translate(27.000000, 10.000000)">
            <use id="Oval-1-copy" xlink:href="#path-1" fill="#316203"></use>
            <g transform="translate(-25.000000, -22.000000)" mask="url(#mask-2)" sketch:type="MSShapeGroup">
                <path d="M155.2,67.2829599 L116.4,134.488117 L38.8000002,134.488117 L0,67.2829602 L38.7999997,0.0778033894 L116.4,0.0778029715 L155.2,67.2829599 Z M155.2,67.2829599" id="0" stroke="#E6E6E6" stroke-width="1.16"></path>
                <path d="M155.2,201.693273 L116.4,268.89843 L38.8000002,268.89843 L0,201.693274 L38.7999997,134.488117 L116.4,134.488116 L155.2,201.693273 Z M155.2,201.693273" id="1" stroke="#E6E6E6" stroke-width="1.16"></path>
                <path d="M155.2,336.103587 L116.4,403.308744 L38.8000002,403.308744 L0,336.103587 L38.7999997,268.89843 L116.4,268.89843 L155.2,336.103587 Z M155.2,336.103587" id="2" stroke="#E6E6E6" stroke-width="1.16"></path>
                <path d="M155.2,470.5139 L116.4,537.719057 L38.8000002,537.719057 L0,470.513901 L38.7999997,403.308744 L116.4,403.308743 L155.2,470.5139 Z M155.2,470.5139" id="3" stroke="#E6E6E6" stroke-width="1.16"></path>
                <path d="M155.2,604.924214 L116.4,672.129371 L38.8000002,672.129371 L0,604.924214 L38.7999997,537.719057 L116.4,537.719057 L155.2,604.924214 Z M155.2,604.924214" id="4" stroke="#E6E6E6" stroke-width="1.16"></path>
                <path d="M155.2,739.334527 L116.4,806.539684 L38.8000002,806.539684 L0,739.334528 L38.7999997,672.129371 L116.4,672.12937 L155.2,739.334527 Z M155.2,739.334527" id="5" stroke="#E6E6E6" stroke-width="1.16"></path>
                <path d="M155.2,873.744841 L116.4,940.949997 L38.8000002,940.949998 L0,873.744841 L38.7999997,806.539684 L116.4,806.539684 L155.2,873.744841 Z M155.2,873.744841" id="6" stroke="#E6E6E6" stroke-width="1.16"></path>
                <path d="M271.6,134.488117 L232.8,201.693273 L155.2,201.693274 L116.4,134.488117 L155.2,67.2829601 L232.8,67.2829597 L271.6,134.488117 Z M271.6,134.488117" id="8" stroke="#E6E6E6" stroke-width="1.16"></path>
                <path d="M271.6,268.89843 L232.8,336.103587 L155.2,336.103587 L116.4,268.89843 L155.2,201.693274 L232.8,201.693273 L271.6,268.89843 Z M271.6,268.89843" id="9" stroke="#E6E6E6" stroke-width="1.16"></path>
                <path d="M271.6,403.308744 L232.8,470.5139 L155.2,470.5139 L116.4,403.308744 L155.2,336.103587 L232.8,336.103587 L271.6,403.308744 Z M271.6,403.308744" id="10" fill="#D8D8D8"></path>
                <path d="M271.6,537.719057 L232.8,604.924214 L155.2,604.924214 L116.4,537.719057 L155.2,470.513901 L232.8,470.5139 L271.6,537.719057 Z M271.6,537.719057" id="11" stroke="#E6E6E6" stroke-width="1.16"></path>
                <path d="M271.6,672.129371 L232.8,739.334527 L155.2,739.334527 L116.4,672.129371 L155.2,604.924214 L232.8,604.924214 L271.6,672.129371 Z M271.6,672.129371" id="12" stroke="#E6E6E6" stroke-width="1.16"></path>
                <path d="M271.6,806.539684 L232.8,873.744841 L155.2,873.744841 L116.4,806.539684 L155.2,739.334527 L232.8,739.334527 L271.6,806.539684 Z M271.6,806.539684" id="13" stroke="#E6E6E6" stroke-width="1.16"></path>
                <path d="M388,67.2829599 L349.2,134.488117 L271.6,134.488117 L232.8,67.2829602 L271.6,0.0778033894 L349.2,0.0778029715 L388,67.2829599 Z M388,67.2829599" id="16" stroke="#E6E6E6" stroke-width="1.16"></path>
                <path d="M388,201.693273 L349.2,268.89843 L271.6,268.89843 L232.8,201.693274 L271.6,134.488117 L349.2,134.488116 L388,201.693273 Z M388,201.693273" id="17" fill="#D8D8D8"></path>
                <path d="M388,336.103587 L349.2,403.308744 L271.6,403.308744 L232.8,336.103587 L271.6,268.89843 L349.2,268.89843 L388,336.103587 Z M388,336.103587" id="18" stroke="#E6E6E6" stroke-width="1.16"></path>
                <path d="M388,470.5139 L349.2,537.719057 L271.6,537.719057 L232.8,470.513901 L271.6,403.308744 L349.2,403.308743 L388,470.5139 Z M388,470.5139" id="19" stroke="#E6E6E6" stroke-width="1.16"></path>
                <path d="M388,604.924214 L349.2,672.129371 L271.6,672.129371 L232.8,604.924214 L271.6,537.719057 L349.2,537.719057 L388,604.924214 Z M388,604.924214" id="20" fill="#D8D8D8"></path>
                <path d="M388,739.334527 L349.2,806.539684 L271.6,806.539684 L232.8,739.334528 L271.6,672.129371 L349.2,672.12937 L388,739.334527 Z M388,739.334527" id="21" stroke="#E6E6E6" stroke-width="1.16"></path>
                <path d="M388,873.744841 L349.2,940.949997 L271.6,940.949998 L232.8,873.744841 L271.6,806.539684 L349.2,806.539684 L388,873.744841 Z M388,873.744841" id="22" stroke="#E6E6E6" stroke-width="1.16"></path>
                <path d="M504.4,134.488117 L465.6,201.693273 L388,201.693274 L349.2,134.488117 L388,67.2829601 L465.6,67.2829597 L504.4,134.488117 Z M504.4,134.488117" id="24" fill="#D8D8D8"></path>
                <path d="M504.4,268.89843 L465.6,336.103587 L388,336.103587 L349.2,268.89843 L388,201.693274 L465.6,201.693273 L504.4,268.89843 Z M504.4,268.89843" id="25" stroke="#E6E6E6" stroke-width="1.16"></path>
                <path d="M504.4,403.308744 L465.6,470.5139 L388,470.5139 L349.2,403.308744 L388,336.103587 L465.6,336.103587 L504.4,403.308744 Z M504.4,403.308744" id="26" stroke="#E6E6E6" stroke-width="1.16"></path>
                <path d="M504.4,537.719057 L465.6,604.924214 L388,604.924214 L349.2,537.719057 L388,470.513901 L465.6,470.5139 L504.4,537.719057 Z M504.4,537.719057" id="27" fill="#D8D8D8"></path>
                <path d="M504.4,672.129371 L465.6,739.334527 L388,739.334527 L349.2,672.129371 L388,604.924214 L465.6,604.924214 L504.4,672.129371 Z M504.4,672.129371" id="28" stroke="#E6E6E6" stroke-width="1.16"></path>
                <path d="M504.4,806.539684 L465.6,873.744841 L388,873.744841 L349.2,806.539684 L388,739.334527 L465.6,739.334527 L504.4,806.539684 Z M504.4,806.539684" id="29" stroke="#E6E6E6" stroke-width="1.16"></path>
                <path d="M620.8,67.2829599 L582,134.488117 L504.4,134.488117 L465.6,67.2829602 L504.4,0.0778033894 L582,0.0778029715 L620.8,67.2829599 Z M620.8,67.2829599" id="32" stroke="#E6E6E6" stroke-width="1.16"></path>
                <path d="M620.8,201.693273 L582,268.89843 L504.4,268.89843 L465.6,201.693274 L504.4,134.488117 L582,134.488116 L620.8,201.693273 Z M620.8,201.693273" id="33" stroke="#E6E6E6" stroke-width="1.16"></path>
                <path d="M620.8,336.103587 L582,403.308744 L504.4,403.308744 L465.6,336.103587 L504.4,268.89843 L582,268.89843 L620.8,336.103587 Z M620.8,336.103587" id="34" fill="#D8D8D8"></path>
                <path d="M620.8,470.5139 L582,537.719057 L504.4,537.719057 L465.6,470.513901 L504.4,403.308744 L582,403.308743 L620.8,470.5139 Z M620.8,470.5139" id="35" stroke="#E6E6E6" stroke-width="1.16"></path>
                <path d="M620.8,604.924214 L582,672.129371 L504.4,672.129371 L465.6,604.924214 L504.4,537.719057 L582,537.719057 L620.8,604.924214 Z M620.8,604.924214" id="36" stroke="#E6E6E6" stroke-width="1.16"></path>
                <path d="M620.8,739.334527 L582,806.539684 L504.4,806.539684 L465.6,739.334528 L504.4,672.129371 L582,672.12937 L620.8,739.334527 Z M620.8,739.334527" id="37" stroke="#E6E6E6" stroke-width="1.16"></path>
                <path d="M620.8,873.744841 L582,940.949997 L504.4,940.949998 L465.6,873.744841 L504.4,806.539684 L582,806.539684 L620.8,873.744841 Z M620.8,873.744841" id="38" stroke="#E6E6E6" stroke-width="1.16"></path>
                <path d="M737.2,134.488117 L698.4,201.693273 L620.8,201.693274 L582,134.488117 L620.8,67.2829601 L698.4,67.2829597 L737.2,134.488117 Z M737.2,134.488117" id="40" stroke="#E6E6E6" stroke-width="1.16"></path>
                <path d="M737.2,268.89843 L698.4,336.103587 L620.8,336.103587 L582,268.89843 L620.8,201.693274 L698.4,201.693273 L737.2,268.89843 Z M737.2,268.89843" id="41" stroke="#E6E6E6" stroke-width="1.16"></path>
                <path d="M737.2,403.308744 L698.4,470.5139 L620.8,470.5139 L582,403.308744 L620.8,336.103587 L698.4,336.103587 L737.2,403.308744 Z M737.2,403.308744" id="42" stroke="#E6E6E6" stroke-width="1.16"></path>
                <path d="M737.2,537.719057 L698.4,604.924214 L620.8,604.924214 L582,537.719057 L620.8,470.513901 L698.4,470.5139 L737.2,537.719057 Z M737.2,537.719057" id="43" stroke="#E6E6E6" stroke-width="1.16"></path>
                <path d="M737.2,672.129371 L698.4,739.334527 L620.8,739.334527 L582,672.129371 L620.8,604.924214 L698.4,604.924214 L737.2,672.129371 Z M737.2,672.129371" id="44" fill="#D8D8D8"></path>
                <path d="M737.2,806.539684 L698.4,873.744841 L620.8,873.744841 L582,806.539684 L620.8,739.334527 L698.4,739.334527 L737.2,806.539684 Z M737.2,806.539684" id="45" stroke="#E6E6E6" stroke-width="1.16"></path>
                <path d="M853.6,67.2829599 L814.8,134.488117 L737.2,134.488117 L698.4,67.2829602 L737.2,0.0778033894 L814.8,0.0778029715 L853.6,67.2829599 Z M853.6,67.2829599" id="48" stroke="#E6E6E6" stroke-width="1.16"></path>
                <path d="M853.6,201.693273 L814.8,268.89843 L737.2,268.89843 L698.4,201.693274 L737.2,134.488117 L814.8,134.488116 L853.6,201.693273 Z M853.6,201.693273" id="49" stroke="#E6E6E6" stroke-width="1.16"></path>
                <path d="M853.6,336.103587 L814.8,403.308744 L737.2,403.308744 L698.4,336.103587 L737.2,268.89843 L814.8,268.89843 L853.6,336.103587 Z M853.6,336.103587" id="50" stroke="#E6E6E6" stroke-width="1.16"></path>
                <path d="M853.6,470.5139 L814.8,537.719057 L737.2,537.719057 L698.4,470.513901 L737.2,403.308744 L814.8,403.308743 L853.6,470.5139 Z M853.6,470.5139" id="51" fill="#D8D8D8"></path>
                <path d="M853.6,604.924214 L814.8,672.129371 L737.2,672.129371 L698.4,604.924214 L737.2,537.719057 L814.8,537.719057 L853.6,604.924214 Z M853.6,604.924214" id="52" stroke="#E6E6E6" stroke-width="1.16"></path>
                <path d="M853.6,739.334527 L814.8,806.539684 L737.2,806.539684 L698.4,739.334528 L737.2,672.129371 L814.8,672.12937 L853.6,739.334527 Z M853.6,739.334527" id="53" stroke="#E6E6E6" stroke-width="1.16"></path>
                <path d="M853.6,873.744841 L814.8,940.949997 L737.2,940.949998 L698.4,873.744841 L737.2,806.539684 L814.8,806.539684 L853.6,873.744841 Z M853.6,873.744841" id="54" stroke="#E6E6E6" stroke-width="1.16"></path>
                <path d="M970,134.488117 L931.2,201.693273 L853.6,201.693274 L814.8,134.488117 L853.6,67.2829601 L931.2,67.2829597 L970,134.488117 Z M970,134.488117" id="56" stroke="#E6E6E6" stroke-width="1.16"></path>
                <path d="M970,268.89843 L931.2,336.103587 L853.6,336.103587 L814.8,268.89843 L853.6,201.693274 L931.2,201.693273 L970,268.89843 Z M970,268.89843" id="57" stroke="#E6E6E6" stroke-width="1.16"></path>
                <path d="M970,403.308744 L931.2,470.5139 L853.6,470.5139 L814.8,403.308744 L853.6,336.103587 L931.2,336.103587 L970,403.308744 Z M970,403.308744" id="58" stroke="#E6E6E6" stroke-width="1.16"></path>
                <path d="M970,537.719057 L931.2,604.924214 L853.6,604.924214 L814.8,537.719057 L853.6,470.513901 L931.2,470.5139 L970,537.719057 Z M970,537.719057" id="59" stroke="#E6E6E6" stroke-width="1.16"></path>
                <path d="M970,672.129371 L931.2,739.334527 L853.6,739.334527 L814.8,672.129371 L853.6,604.924214 L931.2,604.924214 L970,672.129371 Z M970,672.129371" id="60" stroke="#E6E6E6" stroke-width="1.16"></path>
                <path d="M970,806.539684 L931.2,873.744841 L853.6,873.744841 L814.8,806.539684 L853.6,739.334527 L931.2,739.334527 L970,806.539684 Z M970,806.539684" id="61" stroke="#E6E6E6" stroke-width="1.16"></path>
            </g>
        </g>
        <g id="roads" sketch:type="MSLayerGroup" transform="translate(83.000000, 149.000000)" stroke="#123027" stroke-width="5" opacity="0.3" stroke-dasharray="12">
            <path d="M0.8125,181.742187 C239.757812,21.2812449 676.570312,562.015623 858.539062,446.9375" id="Path-168" sketch:type="MSShapeGroup"></path>
            <path d="M510.367188,331.320312 L707.632812,0.1640625" id="Path-169" sketch:type="MSShapeGroup"></path>
        </g>
        <g id="hex-labels" sketch:type="MSLayerGroup" transform="translate(152.000000, 115.000000)" font-size="12" font-family="Trend Sans" fill="#F6F4E1" font-weight="260">
            <text id="VACANT/" sketch:type="MSTextLayer">
                <tspan x="581" y="340">VACANT/</tspan>
                <tspan x="581" y="354">Developable</tspan>
            </text>
            <text id="SUBDIVISION" sketch:type="MSTextLayer">
                <tspan x="348" y="213">SUBDIVISION</tspan>
            </text>
            <text id="SUBDIVISION-copy" sketch:type="MSTextLayer">
                <tspan x="114" y="481">SUBDIVISION</tspan>
            </text>
            <text id="SUBDIVISION-copy-2" sketch:type="MSTextLayer">
                <tspan x="0" y="279">SUBDIVISION</tspan>
            </text>
            <text id="VILLAGE" sketch:type="MSTextLayer">
                <tspan x="131" y="79">VILLAGE</tspan>
            </text>
            <text id="RURAL" sketch:type="MSTextLayer">
                <tspan x="256" y="11">RURAL</tspan>
            </text>
            <text id="COMMERCIAL" sketch:type="MSTextLayer">
                <tspan x="227" y="414">COMMERCIAL</tspan>
            </text>
            <text id="TOWN-CENTER" sketch:type="MSTextLayer">
                <tspan x="458" y="551">TOWN CENTER</tspan>
            </text>
        </g>
    </g>
</svg>