<?xml version="1.0" encoding="UTF-8" standalone="no"?>
<svg width="755px" height="641px" viewBox="0 0 755 641" version="1.1" xmlns="http://www.w3.org/2000/svg" xmlns:xlink="http://www.w3.org/1999/xlink" xmlns:sketch="http://www.bohemiancoding.com/sketch/ns">
    <title>solution-home</title>
    <description>Created with Sketch (http://www.bohemiancoding.com/sketch)</description>
    <defs></defs>
    <g id="Page-1" stroke="none" stroke-width="1" fill="none" fill-rule="evenodd" sketch:type="MSPage">
        <path d="M0,93 L0,326 L292,326 L292,93 L0,93 Z M146,50 L292,93 L0,93 L146,50 Z M146,50" id="House" fill="#D8D8D8" sketch:type="MSShapeGroup"></path>
        <rect d="M1,326 L1,620 L594,620 L594,326 L1,326 Z M1,326" id="Dirt" fill="#4D4A3C" sketch:type="MSShapeGroup" x="1" y="326" width="593" height="294"></rect>
        <rect d="M317,376 L317,558 L558,558 L558,376 L317,376 Z M317,376" id="Septic" fill="#8A7148" sketch:type="MSShapeGroup" x="317" y="376" width="241" height="182"></rect>
        <rect d="M292,301 L292,326 L594,326 L594,301 L292,301 Z M292,301" id="Grass" fill="#69CA14" sketch:type="MSShapeGroup" x="292" y="301" width="302" height="25"></rect>
        <g id="Graph" sketch:type="MSLayerGroup" transform="translate(631.000000, 0.000000)">
            <rect d="M0,0 L0,619 L124,619 L124,0 L0,0 Z M0,0" id="Rectangle-22" fill="#F0EFEF" sketch:type="MSShapeGroup" x="0" y="0" width="124" height="619"></rect>
            <rect d="M0,87 L0,620 L62,620 L62,87 L0,87 Z M0,87" id="Rectangle-5" fill="#55A311" sketch:type="MSShapeGroup" x="0" y="87" width="62" height="533"></rect>
            <rect d="M0,193 L0,620 L62,620 L62,193 L0,193 Z M0,193" id="Path" fill="#6E5A3A" sketch:type="MSShapeGroup" x="0" y="193" width="62" height="427"></rect>
            <rect d="M62,373 L62,620 L124,620 L124,373 L62,373 Z M62,373" id="Rectangle-5" fill="#69CA14" sketch:type="MSShapeGroup" x="62" y="373" width="62" height="247"></rect>
            <rect d="M62,442 L62,620 L124,620 L124,442 L62,442 Z M62,442" id="Path" fill="#8A7148" sketch:type="MSShapeGroup" x="62" y="442" width="62" height="178"></rect>
            <text id="AVG" fill="#000000" sketch:type="MSTextLayer" font-family="Trend Sans" font-size="12" font-weight="260">
                <tspan x="16" y="640">AVG</tspan>
            </text>
            <text id="YOU" fill="#000000" sketch:type="MSTextLayer" font-family="Trend Sans" font-size="12" font-weight="260">
                <tspan x="78" y="640">YOU</tspan>
            </text>
            <text id="2" fill="#FFFFFF" sketch:type="MSTextLayer" font-family="Trend Sans" font-size="24" font-weight="260">
                <tspan x="86" y="407">2</tspan>
            </text>
            <text id="LBS" fill="#FFFFFF" sketch:type="MSTextLayer" font-family="Trend Sans" font-size="12" font-weight="260">
                <tspan x="81" y="425">LBS</tspan>
            </text>
            <text id="7" fill="#FFFFFF" sketch:type="MSTextLayer" font-family="Trend Sans" font-size="24" font-weight="260">
                <tspan x="22" y="123">7</tspan>
            </text>
            <text id="LBS" fill="#FFFFFF" sketch:type="MSTextLayer" font-family="Trend Sans" font-size="12" font-weight="260">
                <tspan x="17" y="141">LBS</tspan>
            </text>
            <text id="27" fill="#FFFFFF" sketch:type="MSTextLayer" font-family="Trend Sans" font-size="24" font-weight="260" sketch:alignment="middle">
                <tspan x="76" y="482">27</tspan>
            </text>
            <text id="LBS" fill="#FFFFFF" sketch:type="MSTextLayer" font-family="Trend Sans" font-size="12" font-weight="260">
                <tspan x="80" y="500">LBS</tspan>
            </text>
            <text id="50" fill="#FFFFFF" sketch:type="MSTextLayer" font-family="Trend Sans" font-size="24" font-weight="260" sketch:alignment="middle">
                <tspan x="11" y="231">50</tspan>
            </text>
            <text id="LBS" fill="#FFFFFF" sketch:type="MSTextLayer" font-family="Trend Sans" font-size="12" font-weight="260">
                <tspan x="18" y="249">LBS</tspan>
            </text>
            <text id="HOUSEHOLD" fill="#4D4D4D" sketch:type="MSTextLayer" font-family="Trend Sans" font-size="12" font-weight="260" sketch:alignment="middle">
                <tspan x="17.704" y="30" fill="#000000">HOUSEHOLD</tspan>
                <tspan x="25.168" y="44" fill="#000000">NITROGEN</tspan>
            </text>
        </g>
        <path d="M148.5,498 L141,498 L141,326 L156,326 L156,481 L317,481 L317,498 L148.5,498 Z M148.5,498" id="Pipes" fill="#8A7148" sketch:type="MSShapeGroup"></path>
        <g id="bath" sketch:type="MSLayerGroup" transform="translate(37.000000, 200.000000)">
            <path d="M0,91.0006766 L0,92.9986469 C0,104.597374 9.4099527,114 20.9961348,114 L22.0038652,114 C33.5997103,114 43,104.593927 43,92.9986469 L43,91.0006766 L43,66 L0,66 L0,91.0006766 Z M0,91.0006766" id="Rectangle-9" fill="#FFFFFF" sketch:type="MSShapeGroup"></path>
            <path d="M25.2309611,30.7027353 L4.08320382,24.6387135 L19.3429175,11.3292756 L25.2309611,30.7027353 Z M25.2309611,30.7027353" id="Triangle-2" fill="#FFFFFF" sketch:type="MSShapeGroup"></path>
            <path d="M40,66.0066161 L40,12.9933839 C40,5.81733612 35.076468,0 29,0 C22.9248678,0 18,5.82329764 18,12.9933839" id="Rectangle-12" stroke="#979797" stroke-width="5" sketch:type="MSShapeGroup"></path>
        </g>
        <g id="bath-copy" sketch:type="MSLayerGroup" transform="translate(215.000000, 228.000000)">
            <path d="M0.42477948,47 C1.98896063,53.3172754 7.69172059,58 14.4978912,58 L28.5021088,58 C35.3026802,58 41.0096355,53.3182619 42.5749673,47 L43,47 L43,27 L0,27 L0,47 L0.42477948,47 Z M0.42477948,47" id="Rectangle-9" fill="#FFFFFF" sketch:type="MSShapeGroup"></path>
            <path d="M40,26.75 L40,12.9933839 C40,5.81733612 35.076468,0 29,0 C22.9248678,0 18,5.82329764 18,12.9933839" id="Rectangle-12" stroke="#979797" stroke-width="5" sketch:type="MSShapeGroup"></path>
            <rect d="M28,45 L28,85 L43,85 L43,45 L28,45 Z M28,45" id="Rectangle-20" fill="#FFFFFF" sketch:type="MSShapeGroup" x="28" y="45" width="15" height="40"></rect>
        </g>
        <g id="toilet" sketch:type="MSLayerGroup" transform="translate(124.000000, 234.000000)">
            <rect d="M15.9999817,28 C6.61115105,28 -0.109786586,35.566814 0.985351679,44.8754893 L1.01464832,45.1245107 C2.11112778,54.4445861 10.6132578,62 19.9947386,62 L29.0052614,62 C38.3911964,62 46.8902134,54.433186 47.9853517,45.1245107 L48.0146483,44.8754893 C49.1111278,35.5554139 42.3923383,28 33.0000183,28 L15.9999817,28 Z M15.9999817,28" id="Rectangle-9" fill="#FFFFFF" sketch:type="MSShapeGroup" x="0.868434507" y="28" width="47.26343" height="34" rx="21"></rect>
            <rect d="M12,46 L8,80 L40,80 L36,46 L12,46 Z M12,46" id="Rectangle-16" fill="#FFFFFF" sketch:type="MSShapeGroup" x="8" y="46" width="32" height="34"></rect>
            <rect d="M6.99821673,0 C5.34234735,0 4,1.35059566 4,2.99921059 L4,32.0007894 C4,33.6572077 5.34083335,35 6.99821673,35 L42.0017833,35 C43.6576526,35 45,33.6494043 45,32.0007894 L45,2.99921059 C45,1.34279232 43.6591666,0 42.0017833,0 L6.99821673,0 Z M6.99821673,0" id="Rectangle-14" fill="#FFFFFF" sketch:type="MSShapeGroup" x="4" y="0" width="41" height="35" rx="3"></rect>
            <ellipse d="M24.5,49 C35.8218379,49 45,44.970563 45,40 C45,35.029437 35.8218379,31 24.5,31 C13.1781621,31 4,35.029437 4,40 C4,44.970563 13.1781621,49 24.5,49 Z M24.5,49" id="Oval-1" fill="#7AC7C5" sketch:type="MSShapeGroup" cx="24.5" cy="40" rx="20.5" ry="9"></ellipse>
        </g>
        <rect d="M403.001712,233 C392.507356,233 384,241.504283 384,252 L384,252 C384,262.49341 392.498605,271 403.001712,271 L488.998288,271 C499.492644,271 508,262.495717 508,252 L508,252 C508,241.50659 499.501395,233 488.998288,233 L403.001712,233 Z M403.001712,233" id="Rectangle-15" fill="#F0582A" sketch:type="MSShapeGroup" x="384" y="233" width="124" height="38" rx="27"></rect>
        <text id="LAWN" fill="#FFFFFF" sketch:type="MSTextLayer" font-family="Trend Sans" font-size="12" font-weight="260">
            <tspan x="408" y="257" fill="#000000">LAWN</tspan>
        </text>
        <rect d="M398.001712,408 C387.507356,408 379,416.504283 379,427 L379,427 C379,437.49341 387.498605,446 398.001712,446 L483.998288,446 C494.492644,446 503,437.495717 503,427 L503,427 C503,416.50659 494.501395,408 483.998288,408 L398.001712,408 Z M398.001712,408" id="Rectangle-15" fill="#F0582A" sketch:type="MSShapeGroup" x="379" y="408" width="124" height="38" rx="27"></rect>
        <path d="M476,246 L493,246 L484.5,259 L476,246 Z M476,246" id="Triangle-2" fill="#A73614" sketch:type="MSShapeGroup"></path>
        <text id="SEPTIC" fill="#FFFFFF" sketch:type="MSTextLayer" font-family="Trend Sans" font-size="12" font-weight="260">
            <tspan x="399" y="431" fill="#000000">SEPTIC</tspan>
        </text>
        <rect d="M97.9934516,115 C87.5036579,115 79,123.504283 79,134 L79,134 C79,144.49341 87.5023882,153 97.9934516,153 L205.006548,153 C215.496342,153 224,144.495717 224,134 L224,134 C224,123.50659 215.497612,115 205.006548,115 L97.9934516,115 Z M97.9934516,115" id="Rectangle-15" fill="#F0582A" sketch:type="MSShapeGroup" x="79" y="115" width="145" height="38" rx="21"></rect>
        <path d="M468,421 L485,421 L476.5,434 L468,421 Z M468,421" id="Triangle-2" fill="#A73614" sketch:type="MSShapeGroup"></path>
        <text id="PLUMBING" fill="#FFFFFF" sketch:type="MSTextLayer" font-family="Trend Sans" font-size="12" font-weight="260">
            <tspan x="98" y="138" fill="#000000">PLUMBING</tspan>
        </text>
        <path d="M190,129 L207,129 L198.5,142 L190,129 Z M190,129" id="Triangle-2" fill="#A73614" sketch:type="MSShapeGroup"></path>
    </g>
</svg>