<?xml version="1.0" encoding="UTF-8" standalone="no"?>
<svg width="156px" height="135px" viewBox="0 0 156 135" version="1.1" xmlns="http://www.w3.org/2000/svg" xmlns:xlink="http://www.w3.org/1999/xlink" xmlns:sketch="http://www.bohemiancoding.com/sketch/ns">
    <title>token-composting-toilets-1@2x</title>
    <description>Created with Sketch (http://www.bohemiancoding.com/sketch)</description>
    <defs></defs>
    <g id="Page-1" stroke="none" stroke-width="1" fill="none" fill-rule="evenodd" sketch:type="MSPage">
        <g id="tokens-selected" sketch:type="MSLayerGroup">
            <g id="token-hexes" fill="#D63C2D" sketch:type="MSShapeGroup">
                <path d="M155.2,67.205157 L116.4,134.410314 L38.8000002,134.410314 L0,67.2051572 L38.7999997,4.17861068e-07 L116.4,0 L155.2,67.205157 Z M155.2,67.205157" id="hex-copy-5"></path>
            </g>
            <g id="token-shapes" transform="translate(17.000000, 15.000000)" sketch:type="MSShapeGroup">
                <g id="composting-toilets" transform="translate(30.000000, 10.000000)">
                    <path d="M60.7731818,41.3213182 C59.0455909,41.9903636 60.6781364,46.0232727 59.3344545,47.0799545 L58.7585909,47.0799545 C58.1603636,48.3025 58.6449091,50.6134091 58.1845909,51.9757273 C57.7895,52.0633182 57.9423182,52.6950909 57.8975909,53.1255909 C57.8398182,53.3585455 57.6012727,53.4125909 57.6068636,53.7014545 C57.1782273,53.9474545 56.9862727,54.4282727 57.031,55.1383182 C56.7700909,55.6508182 56.3321364,55.9825455 56.1662727,56.5807727 C54.9679545,57.6896364 54.0025909,59.0258636 52.4185,59.7470909 C51.9283636,59.7359091 51.6749091,59.9651364 51.5575,60.3248182 C50.9574091,60.2018182 50.7971364,60.5223636 50.4057727,60.6099545 C50.3834091,61.0199545 50.3591818,61.4280909 50.6909091,61.4746818 L50.6909091,62.0505455 C52.0196818,69.9393182 53.9522727,77.2186818 55.5866818,84.7999545 L11.5303182,84.7999545 L11.5303182,82.2076364 L11.5303182,81.9206364 C11.8750909,81.4957273 12.6186818,81.4733636 12.9727727,81.0577727 C13.3100909,81.0111818 13.2131818,80.5340909 13.2616364,80.1911818 C13.8859545,80.2433636 13.3939545,79.1717727 13.5486364,78.7543182 C13.6995909,78.3275455 13.9754091,78.0293636 14.1245,77.6044545 C14.6444545,76.4937273 16.0925,76.3110909 16.1390909,74.7251364 C15.9695,74.1231818 16.4969091,72.8316818 15.8558182,72.7086818 C15.8409091,70.9941364 15.7272273,69.3746364 15.2780909,68.0999091 C15.2687727,67.8203636 14.9221364,67.8744091 14.7003636,67.8129091 C13.4815455,67.3935909 12.9690455,66.2828636 12.1099091,65.5038636 C11.6812727,65.2653182 11.4911818,64.7845 11.5303182,64.067 C11.4147727,62.8407273 11.398,61.5156818 10.9600455,60.6099545 C10.8519545,60.2633182 10.7680909,59.8924545 10.6954091,59.5104091 C10.7215,59.2588182 10.7215,59.0258636 10.5873182,58.9345455 C10.5071818,58.3996818 10.4419545,57.8387273 10.4028182,57.2572727 C10.4270455,57.0280455 10.4400909,56.8137273 10.3599545,56.6888636 C10.127,52.9765 10.4028182,48.7572273 9.22872727,46.2133636 C8.83177273,45.3505 8.17390909,45.1827727 7.50113636,44.7746364 L7.50113636,44.4913636 C7.4415,43.5893636 7.69681818,42.3724091 7.21413636,41.9009091 L2.31836364,41.9009091 C2.30904545,41.6157727 1.96613636,41.6716818 1.74436364,41.6083182 C1.79281818,41.3641818 1.63068182,41.3362273 1.45177273,41.3213182 C1.26727273,29.2263182 1.83568182,16.3672273 1.16663636,4.75118182 C-0.139772727,4.617 0.398818182,2.64527273 0.303772727,1.29413636 C0.465909091,0.882272727 0.747318182,0.595272727 1.16663636,0.431272727 L18.4462727,0.431272727 L18.7314091,0.431272727 C19.639,1.05745455 19.2196818,3.01613636 19.3054091,4.46418182 C18.9028636,4.43809091 18.491,4.41759091 18.4462727,4.75118182 C17.5834091,16.5591818 18.7276818,30.3761818 17.8685455,42.1841818 C21.4653636,41.558 27.8613636,43.731 28.8118182,40.4584545 L29.0988182,40.4584545 L59.9103182,40.4584545 C60.2867727,40.5572273 60.3631818,40.9653636 60.7731818,41.0343182 L60.7731818,41.3213182 Z M60.7731818,41.3213182" id="Fill-1" fill="#FFFFFF"></path>
                    <path d="M27.4047727,38.7942273 C27.4476364,39.3160455 27.1233636,39.4725909 26.5419091,39.3700909 C25.4833636,39.5750909 25.8225455,38.3618636 25.3939091,37.9332273 C24.2216818,29.7928636 23.1594091,21.55 21.6498636,13.7469545 L21.6498636,11.4416364 L21.6498636,11.1546364 C22.0635909,11.1210909 23.1519545,9.89109091 23.0885909,11.1546364 C23.1109545,11.6093636 22.9525455,12.2504545 23.3774545,12.3045 C24.4844545,21.3710909 25.8579545,30.1730455 27.4047727,38.7942273" id="Fill-2" fill="#FFFFFF"></path>
                    <path d="M41.6858182,70.7686364 C40.6459091,71.3035 38.4654545,71.8420909 35.7128636,71.8420909 C29.3373636,71.8420909 24.5720455,67.8166364 24.5720455,60.3658182 C24.5720455,53.2523182 29.3709091,48.4888636 36.3837727,48.4888636 C39.1680455,48.4888636 40.9813636,49.0889545 41.7529091,49.4933636 L41.0149091,51.8769545 C39.9414545,51.3383636 38.3648182,50.9376818 36.4844091,50.9376818 C31.1823636,50.9376818 27.6600909,54.3276364 27.6600909,60.2633182 C27.6600909,65.8355909 30.8487727,69.3597273 36.3166818,69.3597273 C38.13,69.3597273 39.9414545,68.9888636 41.1136818,68.4167273 L41.6858182,70.7686364" id="Fill-3" fill="#D63C2C"></path>
                </g>
            </g>
        </g>
    </g>
</svg>